<?xml version="1.0" encoding="UTF-8"?>
<svg width="104px" height="15px" viewBox="0 0 104 15" version="1.1" xmlns="http://www.w3.org/2000/svg" xmlns:xlink="http://www.w3.org/1999/xlink">
    <!-- Generator: Sketch 45.1 (43504) - http://www.bohemiancoding.com/sketch -->
    <title>seperator-white</title>
    <desc>Created with Sketch.</desc>
    <defs></defs>
    <g id="Concept-1" stroke="none" stroke-width="1" fill="none" fill-rule="evenodd">
        <g id="Home-V2" transform="translate(-668.000000, -330.000000)" fill="#FFFFFE">
            <g id="seperator-white" transform="translate(668.000000, 330.000000)">
                <path d="M102.848139,6.60326087 C100.092057,6.60326087 98.6909228,5.31652174 97.454715,4.18125 C96.3490394,3.16597826 95.4759307,2.36413043 93.6158866,2.36413043 C91.7558425,2.36413043 90.8825701,3.16597826 89.7770583,4.18125 C88.5408504,5.31652174 87.1397165,6.60326087 84.3834709,6.60326087 C81.6277165,6.60326087 80.2267465,5.31652174 78.9907024,4.18125 C77.8853543,3.16597826 77.0122457,2.36413043 75.1525291,2.36413043 C73.2928126,2.36413043 72.4197039,3.16597826 71.3141921,4.18125 C70.078148,5.31652174 68.6770142,6.60326087 65.9212598,6.60326087 C63.1655055,6.60326087 61.7643717,5.31652174 60.5284913,4.18125 C59.4231433,3.16597826 58.5500346,2.36413043 56.6903181,2.36413043 C54.8307654,2.36413043 53.9576567,3.16597826 52.8523087,4.18125 C51.6164283,5.31652174 50.2154583,6.60326087 47.4597039,6.60326087 C44.703622,6.60326087 43.302652,5.31652174 42.0666079,4.18125 C40.9612598,3.16597826 40.0881512,2.36413043 38.2284346,2.36413043 C36.3687181,2.36413043 35.4956094,3.16597826 34.3902614,4.18125 C33.1542173,5.31652174 31.7532472,6.60326087 28.9974929,6.60326087 C26.2415748,6.60326087 24.8406047,5.31652174 23.6045606,4.18125 C22.4992126,3.16597826 21.6261039,2.36413043 19.7663874,2.36413043 C17.9066709,2.36413043 17.0335622,3.16597826 15.9282142,4.18125 C14.6921701,5.31652174 13.2912,6.60326087 10.5352819,6.60326087 C7.77969134,6.60326087 6.37872126,5.31652174 5.14267717,4.18125 C4.03732913,3.16597826 3.16438425,2.36413043 1.3048315,2.36413043 C0.671659843,2.36413043 0.158374803,1.85315217 0.158374803,1.22282609 C0.158374803,0.5925 0.671659843,0.0815217391 1.3048315,0.0815217391 C4.06058583,0.0815217391 5.46139213,1.36826087 6.69743622,2.50353261 C7.80278425,3.51880435 8.67572913,4.32065217 10.5352819,4.32065217 C12.3949984,4.32065217 13.2681071,3.51880435 14.3734551,2.50353261 C15.6094992,1.36826087 17.0106331,0.0815217391 19.7663874,0.0815217391 C22.5221417,0.0815217391 23.9232756,1.36826087 25.1593197,2.50353261 C26.2646677,3.51880435 27.1377764,4.32065217 28.9974929,4.32065217 C30.8572094,4.32065217 31.7301543,3.51880435 32.8355024,2.50353261 C34.0715465,1.36826087 35.4725165,0.0815217391 38.2284346,0.0815217391 C40.9843528,0.0815217391 42.3853228,1.36826087 43.6213669,2.50353261 C44.726715,3.51880435 45.5998236,4.32065217 47.4597039,4.32065217 C49.3192567,4.32065217 50.1922016,3.51880435 51.2975496,2.50353261 C52.5335937,1.36826087 53.9345638,0.0815217391 56.6903181,0.0815217391 C59.4462362,0.0815217391 60.8472063,1.36826087 62.0832504,2.50353261 C63.1885984,3.51880435 64.0615433,4.32065217 65.9212598,4.32065217 C67.7809764,4.32065217 68.654085,3.51880435 69.7594331,2.50353261 C70.9956409,1.36826087 72.396611,0.0815217391 75.1525291,0.0815217391 C77.9084472,0.0815217391 79.3094173,1.36826087 80.5454614,2.50353261 C81.6508094,3.51880435 82.5239181,4.32065217 84.3834709,4.32065217 C86.2436787,4.32065217 87.1167874,3.51880435 88.222463,2.50336957 C89.4586709,1.36826087 90.8598047,0.0815217391 93.6158866,0.0815217391 C96.3719685,0.0815217391 97.7731024,1.36826087 99.0093102,2.50353261 C100.114986,3.51880435 100.988094,4.32065217 102.848139,4.32065217 C103.48131,4.32065217 103.994595,4.83163043 103.994595,5.46195652 C103.994595,6.09228261 103.48131,6.60326087 102.848139,6.60326087" id="Fill-12"></path>
                <path d="M102.848139,14.9592391 C100.092057,14.9592391 98.6909228,13.6725 97.454715,12.5372283 C96.3490394,11.5219565 95.4759307,10.7201087 93.6158866,10.7201087 C91.7558425,10.7201087 90.8825701,11.5219565 89.7770583,12.5372283 C88.5408504,13.6725 87.1397165,14.9592391 84.3834709,14.9592391 C81.6277165,14.9592391 80.2267465,13.6725 78.9907024,12.5372283 C77.8853543,11.5219565 77.0122457,10.7201087 75.1525291,10.7201087 C73.2928126,10.7201087 72.4197039,11.5219565 71.3141921,12.5372283 C70.078148,13.6725 68.6770142,14.9592391 65.9212598,14.9592391 C63.1655055,14.9592391 61.7643717,13.6725 60.5284913,12.5372283 C59.4231433,11.5219565 58.5500346,10.7201087 56.6903181,10.7201087 C54.8307654,10.7201087 53.9576567,11.5219565 52.8523087,12.5372283 C51.6164283,13.6725 50.2154583,14.9592391 47.4597039,14.9592391 C44.703622,14.9592391 43.302652,13.6725 42.0666079,12.5372283 C40.9612598,11.5219565 40.0881512,10.7201087 38.2284346,10.7201087 C36.3687181,10.7201087 35.4956094,11.5219565 34.3902614,12.5372283 C33.1542173,13.6725 31.7532472,14.9592391 28.9974929,14.9592391 C26.2415748,14.9592391 24.8406047,13.6725 23.6045606,12.5372283 C22.4992126,11.5219565 21.6261039,10.7201087 19.7663874,10.7201087 C17.9066709,10.7201087 17.0335622,11.5219565 15.9282142,12.5372283 C14.6921701,13.6725 13.2912,14.9592391 10.5352819,14.9592391 C7.77969134,14.9592391 6.37872126,13.6725 5.14267717,12.5372283 C4.03732913,11.5219565 3.16438425,10.7201087 1.3048315,10.7201087 C0.671659843,10.7201087 0.158374803,10.2091304 0.158374803,9.57880435 C0.158374803,8.94847826 0.671659843,8.4375 1.3048315,8.4375 C4.06058583,8.4375 5.46139213,9.72423913 6.69743622,10.8595109 C7.80278425,11.8747826 8.67572913,12.6766304 10.5352819,12.6766304 C12.3949984,12.6766304 13.2681071,11.8747826 14.3734551,10.8595109 C15.6094992,9.72423913 17.0106331,8.4375 19.7663874,8.4375 C22.5221417,8.4375 23.9232756,9.72423913 25.1593197,10.8595109 C26.2646677,11.8747826 27.1377764,12.6766304 28.9974929,12.6766304 C30.8572094,12.6766304 31.7301543,11.8747826 32.8355024,10.8595109 C34.0715465,9.72423913 35.4725165,8.4375 38.2284346,8.4375 C40.9843528,8.4375 42.3853228,9.72423913 43.6213669,10.8595109 C44.726715,11.8747826 45.5998236,12.6766304 47.4597039,12.6766304 C49.3192567,12.6766304 50.1922016,11.8747826 51.2975496,10.8595109 C52.5335937,9.72423913 53.9345638,8.4375 56.6903181,8.4375 C59.4462362,8.4375 60.8472063,9.72423913 62.0832504,10.8595109 C63.1885984,11.8747826 64.0615433,12.6766304 65.9212598,12.6766304 C67.7809764,12.6766304 68.654085,11.8747826 69.7594331,10.8595109 C70.9956409,9.72423913 72.396611,8.4375 75.1525291,8.4375 C77.9084472,8.4375 79.3094173,9.72423913 80.5454614,10.8595109 C81.6508094,11.8747826 82.5239181,12.6766304 84.3834709,12.6766304 C86.2436787,12.6766304 87.1167874,11.8747826 88.222463,10.8593478 C89.4586709,9.72423913 90.8598047,8.4375 93.6158866,8.4375 C96.3719685,8.4375 97.7731024,9.72423913 99.0093102,10.8595109 C100.114986,11.8747826 100.988094,12.6766304 102.848139,12.6766304 C103.48131,12.6766304 103.994595,13.1876087 103.994595,13.8179348 C103.994595,14.4482609 103.48131,14.9592391 102.848139,14.9592391" id="Fill-13"></path>
            </g>
        </g>
    </g>
</svg>