<?xml version="1.0" encoding="UTF-8"?>
<svg width="104px" height="14px" viewBox="0 0 104 14" version="1.1" xmlns="http://www.w3.org/2000/svg" xmlns:xlink="http://www.w3.org/1999/xlink">
    <!-- Generator: Sketch 45.1 (43504) - http://www.bohemiancoding.com/sketch -->
    <title>seperator-red</title>
    <desc>Created with Sketch.</desc>
    <defs></defs>
    <g id="Concept-1" stroke="none" stroke-width="1" fill="none" fill-rule="evenodd">
        <g id="Faq's" transform="translate(-669.000000, -231.000000)" fill="#F03454">
            <g id="seperator-red" transform="translate(669.000000, 231.000000)">
                <g id="Group-5">
                    <path d="M102.689764,6.52173913 C99.9336819,6.52173913 98.532548,5.235 97.2963402,4.09972826 C96.1906646,3.08445652 95.3175559,2.2826087 93.4575118,2.2826087 C91.5974677,2.2826087 90.7241953,3.08445652 89.6186835,4.09972826 C88.3824756,5.235 86.9813417,6.52173913 84.2250961,6.52173913 C81.4693417,6.52173913 80.0683717,5.235 78.8323276,4.09972826 C77.7269795,3.08445652 76.8538709,2.2826087 74.9941543,2.2826087 C73.1344378,2.2826087 72.2613291,3.08445652 71.1558173,4.09972826 C69.9197732,5.235 68.5186394,6.52173913 65.762885,6.52173913 C63.0071307,6.52173913 61.6059969,5.235 60.3701165,4.09972826 C59.2647685,3.08445652 58.3916598,2.2826087 56.5319433,2.2826087 C54.6723906,2.2826087 53.7992819,3.08445652 52.6939339,4.09972826 C51.4580535,5.235 50.0570835,6.52173913 47.3013291,6.52173913 C44.5452472,6.52173913 43.1442772,5.235 41.9082331,4.09972826 C40.802885,3.08445652 39.9297764,2.2826087 38.0700598,2.2826087 C36.2103433,2.2826087 35.3372346,3.08445652 34.2318866,4.09972826 C32.9958425,5.235 31.5948724,6.52173913 28.8391181,6.52173913 C26.0832,6.52173913 24.6822299,5.235 23.4461858,4.09972826 C22.3408378,3.08445652 21.4677291,2.2826087 19.6080126,2.2826087 C17.7482961,2.2826087 16.8751874,3.08445652 15.7698394,4.09972826 C14.5337953,5.235 13.1328252,6.52173913 10.3769071,6.52173913 C7.62131654,6.52173913 6.22034646,5.235 4.98430236,4.09972826 C3.87895433,3.08445652 3.00600945,2.2826087 1.14645669,2.2826087 C0.513285039,2.2826087 0,1.77163043 0,1.14130435 C0,0.510978261 0.513285039,0 1.14645669,0 C3.90221102,0 5.30301732,1.28673913 6.53906142,2.42201087 C7.64440945,3.43728261 8.51735433,4.23913043 10.3769071,4.23913043 C12.2366236,4.23913043 13.1097323,3.43728261 14.2150803,2.42201087 C15.4511244,1.28673913 16.8522583,0 19.6080126,0 C22.3637669,0 23.7649008,1.28673913 25.0009449,2.42201087 C26.1062929,3.43728261 26.9794016,4.23913043 28.8391181,4.23913043 C30.6988346,4.23913043 31.5717795,3.43728261 32.6771276,2.42201087 C33.9131717,1.28673913 35.3141417,0 38.0700598,0 C40.825978,0 42.226948,1.28673913 43.4629921,2.42201087 C44.5683402,3.43728261 45.4414488,4.23913043 47.3013291,4.23913043 C49.1608819,4.23913043 50.0338268,3.43728261 51.1391748,2.42201087 C52.3752189,1.28673913 53.776189,0 56.5319433,0 C59.2878614,0 60.6888315,1.28673913 61.9248756,2.42201087 C63.0302236,3.43728261 63.9031685,4.23913043 65.762885,4.23913043 C67.6226016,4.23913043 68.4957102,3.43728261 69.6010583,2.42201087 C70.8372661,1.28673913 72.2382362,0 74.9941543,0 C77.7500724,0 79.1510425,1.28673913 80.3870866,2.42201087 C81.4924346,3.43728261 82.3655433,4.23913043 84.2250961,4.23913043 C86.0853039,4.23913043 86.9584126,3.43728261 88.0640882,2.42184783 C89.3002961,1.28673913 90.7014299,0 93.4575118,0 C96.2135937,0 97.6147276,1.28673913 98.8509354,2.42201087 C99.956611,3.43728261 100.82972,4.23913043 102.689764,4.23913043 C103.322935,4.23913043 103.83622,4.7501087 103.83622,5.38043478 C103.83622,6.01076087 103.322935,6.52173913 102.689764,6.52173913" id="Fill-12"></path>
                    <path d="M102.689764,13.5217391 C99.9336819,13.5217391 98.532548,12.235 97.2963402,11.0997283 C96.1906646,10.0844565 95.3175559,9.2826087 93.4575118,9.2826087 C91.5974677,9.2826087 90.7241953,10.0844565 89.6186835,11.0997283 C88.3824756,12.235 86.9813417,13.5217391 84.2250961,13.5217391 C81.4693417,13.5217391 80.0683717,12.235 78.8323276,11.0997283 C77.7269795,10.0844565 76.8538709,9.2826087 74.9941543,9.2826087 C73.1344378,9.2826087 72.2613291,10.0844565 71.1558173,11.0997283 C69.9197732,12.235 68.5186394,13.5217391 65.762885,13.5217391 C63.0071307,13.5217391 61.6059969,12.235 60.3701165,11.0997283 C59.2647685,10.0844565 58.3916598,9.2826087 56.5319433,9.2826087 C54.6723906,9.2826087 53.7992819,10.0844565 52.6939339,11.0997283 C51.4580535,12.235 50.0570835,13.5217391 47.3013291,13.5217391 C44.5452472,13.5217391 43.1442772,12.235 41.9082331,11.0997283 C40.802885,10.0844565 39.9297764,9.2826087 38.0700598,9.2826087 C36.2103433,9.2826087 35.3372346,10.0844565 34.2318866,11.0997283 C32.9958425,12.235 31.5948724,13.5217391 28.8391181,13.5217391 C26.0832,13.5217391 24.6822299,12.235 23.4461858,11.0997283 C22.3408378,10.0844565 21.4677291,9.2826087 19.6080126,9.2826087 C17.7482961,9.2826087 16.8751874,10.0844565 15.7698394,11.0997283 C14.5337953,12.235 13.1328252,13.5217391 10.3769071,13.5217391 C7.62131654,13.5217391 6.22034646,12.235 4.98430236,11.0997283 C3.87895433,10.0844565 3.00600945,9.2826087 1.14645669,9.2826087 C0.513285039,9.2826087 0,8.77163043 0,8.14130435 C0,7.51097826 0.513285039,7 1.14645669,7 C3.90221102,7 5.30301732,8.28673913 6.53906142,9.42201087 C7.64440945,10.4372826 8.51735433,11.2391304 10.3769071,11.2391304 C12.2366236,11.2391304 13.1097323,10.4372826 14.2150803,9.42201087 C15.4511244,8.28673913 16.8522583,7 19.6080126,7 C22.3637669,7 23.7649008,8.28673913 25.0009449,9.42201087 C26.1062929,10.4372826 26.9794016,11.2391304 28.8391181,11.2391304 C30.6988346,11.2391304 31.5717795,10.4372826 32.6771276,9.42201087 C33.9131717,8.28673913 35.3141417,7 38.0700598,7 C40.825978,7 42.226948,8.28673913 43.4629921,9.42201087 C44.5683402,10.4372826 45.4414488,11.2391304 47.3013291,11.2391304 C49.1608819,11.2391304 50.0338268,10.4372826 51.1391748,9.42201087 C52.3752189,8.28673913 53.776189,7 56.5319433,7 C59.2878614,7 60.6888315,8.28673913 61.9248756,9.42201087 C63.0302236,10.4372826 63.9031685,11.2391304 65.762885,11.2391304 C67.6226016,11.2391304 68.4957102,10.4372826 69.6010583,9.42201087 C70.8372661,8.28673913 72.2382362,7 74.9941543,7 C77.7500724,7 79.1510425,8.28673913 80.3870866,9.42201087 C81.4924346,10.4372826 82.3655433,11.2391304 84.2250961,11.2391304 C86.0853039,11.2391304 86.9584126,10.4372826 88.0640882,9.42184783 C89.3002961,8.28673913 90.7014299,7 93.4575118,7 C96.2135937,7 97.6147276,8.28673913 98.8509354,9.42201087 C99.956611,10.4372826 100.82972,11.2391304 102.689764,11.2391304 C103.322935,11.2391304 103.83622,11.7501087 103.83622,12.3804348 C103.83622,13.0107609 103.322935,13.5217391 102.689764,13.5217391" id="Fill-13"></path>
                </g>
            </g>
        </g>
    </g>
</svg>